<svg width="512" height="512" viewBox="0 0 512 512" fill="none" xmlns="http://www.w3.org/2000/svg" xmlns:xlink="http://www.w3.org/1999/xlink" class=""><rect id="r4" width="512" height="512" x="0" y="0" rx="128" fill="url(#r5)" stroke="#FFFFFF" stroke-width="0" stroke-opacity="100%" paint-order="stroke"></rect><rect width="512" height="512" x="0" y="0" fill="url(#r6)" rx="128" style="mix-blend-mode: overlay;"></rect><clipPath id="clip"><use xlink:href="#r4"></use></clipPath><defs><linearGradient id="r5" gradientUnits="userSpaceOnUse" gradientTransform="rotate(135)" style="transform-origin: center center;"><stop stop-color="#DD1818"></stop><stop offset="1" stop-color="#380202"></stop></linearGradient><radialGradient id="r6" cx="0" cy="0" r="1" gradientUnits="userSpaceOnUse" gradientTransform="translate(256) rotate(90) scale(512)"><stop stop-color="white"></stop><stop offset="1" stop-color="white" stop-opacity="0"></stop></radialGradient></defs><svg xmlns="http://www.w3.org/2000/svg" viewBox="5.68 15.702 88.639 67.548" width="352" height="352" x="80" y="80" alignment-baseline="middle" style="color: rgb(255, 255, 255);"><path fill="#fff" d="M94.319 49.479a3.969 3.969 0 0 0-3.965-3.965 3.969 3.969 0 0 0-3.964 3.965c0 .021.006.042.007.063l-3.513 1.296a3.923 3.923 0 0 0-2.567-.969c-.709 0-1.366.202-1.943.529L39.827 21c.151-.419.248-.864.248-1.334a3.968 3.968 0 0 0-3.965-3.964 3.968 3.968 0 0 0-3.964 3.964 3.967 3.967 0 0 0 3.941 3.962l5.073 17.658c-.07.047-.128.108-.194.16L13.549 23.017c.029-.195.06-.389.06-.592a3.968 3.968 0 0 0-3.965-3.964 3.968 3.968 0 0 0-3.964 3.964 3.97 3.97 0 0 0 3.964 3.966 3.948 3.948 0 0 0 2.829-1.195l27.131 18.235c-.034.114-.081.223-.105.341l-16.363-1.307c-.489-1.635-1.989-2.837-3.781-2.837a3.968 3.968 0 0 0-3.965 3.964 3.969 3.969 0 0 0 3.965 3.965c1.733 0 3.194-1.126 3.731-2.679l16.701 1.334c.096.207.202.408.33.595L19.754 75.584a3.93 3.93 0 0 0-1.382-.263 3.969 3.969 0 0 0-3.965 3.965 3.968 3.968 0 0 0 3.965 3.964c2.072 0 3.759-1.604 3.931-3.633l55.409-22.819c.699.614 1.604 1 2.605 1l5.314 11.291a3.93 3.93 0 0 0-.999 2.604c0 2.187 1.778 3.966 3.965 3.966s3.965-1.779 3.965-3.966c0-1.52-.869-2.826-2.127-3.491l1.588-15.139a3.962 3.962 0 0 0 2.296-3.584zM9.644 23.982a1.559 1.559 0 0 1-1.556-1.557 1.558 1.558 0 0 1 3.113 0 1.56 1.56 0 0 1-1.557 1.557zm80.71 23.941c.858 0 1.557.698 1.557 1.557 0 .857-.698 1.556-1.557 1.556a1.558 1.558 0 0 1-1.556-1.556 1.56 1.56 0 0 1 1.556-1.557zm-.785 5.441-1.513 14.419c-.118.017-.236.028-.352.056l-5.08-10.795a3.955 3.955 0 0 0 1.657-3.211c0-.312-.045-.61-.112-.901l3.006-1.108a3.962 3.962 0 0 0 2.394 1.54zm-7.695.469a1.558 1.558 0 0 1-3.114 0 1.558 1.558 0 0 1 3.114 0zm-60.22 23.233 20.372-28.789c.425.155.877.254 1.354.254a3.97 3.97 0 0 0 3.66-2.447l29.399 8.572c.004.018.013.034.017.053L21.749 77.238c-.034-.055-.058-.117-.095-.172zm55.048-24.843-29.481-8.595a3.958 3.958 0 0 0-3.746-3.016L38.397 22.94l38.331 29.235c-.007.016-.018.031-.026.048zm-34.876-7.656a1.557 1.557 0 0 1 3.112 0 1.557 1.557 0 0 1-3.112 0zm-7.271-24.901a1.558 1.558 0 0 1 3.113 0 1.558 1.558 0 0 1-3.113 0zM19.354 45.149a1.559 1.559 0 0 1-1.557-1.556 1.558 1.558 0 0 1 3.113 0 1.559 1.559 0 0 1-1.556 1.556zm-.982 35.693a1.559 1.559 0 0 1-1.557-1.556c0-.858.698-1.557 1.557-1.557.857 0 1.556.698 1.556 1.557 0 .858-.699 1.556-1.556 1.556zm70.226-7.592a1.56 1.56 0 0 1-1.557-1.558 1.558 1.558 0 1 1 1.557 1.558z"></path></svg></svg>